:version 1.10
:name ASF
:units
  mass 1
  length 1
  angle deg
:documentation
  ASF file generated by Kaydara
:root
  axis xyz
  order  tx ty tz rx ry rz
  position 0 0 0
  orientation 0 0 0
:bonedata
  begin
    id 1
    name RightUpLegDummy
    direction -1 2.30186e-007 8.31532e-007
    length 4.04083
    axis 0 0 0 xyz
  end
  begin
    id 2
    name RightUpLeg
    direction -0.000919234 -0.999985 0.00544864
    length 17.4221
    axis -3.80308 -0.00076134 -0.0523649 xyz
    dof rx ry rz
  end
  begin
    id 3
    name RightLeg
    direction -0.000919271 -0.999984 -0.00555045
    length 17.1239
    axis 4.00314 0.0181274 -0.183583 xyz
    dof rx ry rz
  end
  begin
    id 4
    name RightFoot
    direction -2.57843e-005 -4.04509e-007 1
    length 6.72091
    axis 8.18909e-005 -0.122003 -0.403008 xyz
    dof rx ry rz
  end
  begin
    id 5
    name RightToes
    direction 0.00116825 -0.014069 0.9999
    length 3.85082
    axis 0.000514414 0.540638 -0.356797 xyz
    dof rx ry rz
  end
  begin
    id 6
    name SpineDummy
    direction 0.0168869 0.966876 -0.254689
    length 6.99894
    axis 0 0 0 xyz
  end
  begin
    id 7
    name Spine
    direction -0.0132008 0.999903 0.00446247
    length 11.1999
    axis -0.00148109 0.00725429 0.756411 xyz
    dof rx ry rz
  end
  begin
    id 8
    name Spine1
    direction 0 0 0
    length 0
    axis -0.000934958 0.0245693 1.46543 xyz
    dof rx ry rz
  end
  begin
    id 9
    name HEadDummy
    direction -0.0255732 0.999672 0.00128215
    length 3.43865
    axis -0.000934958 0.0245693 1.46543 xyz
  end
  begin
    id 10
    name HEad
    direction -0.0472656 0.980052 0.19304
    length 5.12695
    axis -0.000934954 0.0245693 1.46543 xyz
    dof rx ry rz
  end
  begin
    id 11
    name LeftShoulder1Dummy
    direction 0.953098 0.301717 -0.023914
    length 3.68488
    axis -0.000934958 0.0245693 1.46543 xyz
  end
  begin
    id 12
    name LeftShoulder1
    direction 0.962466 0.271167 0.0112566
    length 3.13809
    axis -0.000934958 0.0245693 1.46543 xyz
    dof rx ry rz
  end
  begin
    id 13
    name LeftArm
    direction 0.999943 0.00455037 -0.00961766
    length 11.3419
    axis -23.1648 0.685459 1.22814 xyz
    dof rx ry rz
  end
  begin
    id 14
    name LeftForeArm
    direction 0.999332 0.0131969 0.0340885
    length 8.70632
    axis -9.90633 0.618216 0.0826942 xyz
    dof rx ry rz
  end
  begin
    id 15
    name LeftHand
    direction 0.994373 -0.0366703 0.0993905
    length 5.32135
    axis 0.00675269 0.680415 0.445699 xyz
    dof rx ry rz
  end
  begin
    id 16
    name RightShoulderDummy
    direction -0.967298 0.252589 -0.0230903
    length 3.68488
    axis -0.000934958 0.0245693 1.46543 xyz
  end
  begin
    id 17
    name RightShoulder
    direction -0.975062 0.221602 0.0120823
    length 3.13809
    axis 0.216257 0.0246515 1.45863 xyz
    dof rx ry rz
  end
  begin
    id 18
    name RightArm
    direction -0.99886 -0.00851186 -0.0469687
    length 10.3947
    axis -23.196 0.23503 -0.532632 xyz
    dof rx ry rz
  end
  begin
    id 19
    name RightForeArm
    direction -0.99909 0.00114866 0.0426317
    length 8.68355
    axis -9.91764 -0.134943 0.610517 xyz
    dof rx ry rz
  end
  begin
    id 20
    name RightHand
    direction -0.992888 -0.0489538 0.10852
    length 5.28593
    axis -0.00275396 -0.197403 0.246414 xyz
    dof rx ry rz
  end
  begin
    id 21
    name LeftUpLegDummy
    direction 1 -2.30186e-007 -8.31532e-007
    length 4.04083
    axis 0 0 0 xyz
  end
  begin
    id 22
    name LeftUpLeg
    direction -0.000920097 -1 2.79241e-006
    length 17.4221
    axis -3.48782 0.00143434 -0.0532288 xyz
    dof rx ry rz
  end
  begin
    id 23
    name LeftLeg
    direction -0.000920097 -1 2.7912e-006
    length 17.1239
    axis 3.68162 -0.00806512 -0.0529896 xyz
    dof rx ry rz
  end
  begin
    id 24
    name LeftFoot
    direction -2.57845e-005 -3.987e-007 1
    length 6.72091
    axis 3.02372e-005 -0.00147829 -0.214229 xyz
    dof rx ry rz
  end
  begin
    id 25
    name LeftToes
    direction 0.00813577 -0.00488255 0.999955
    length 3.85048
    axis 3.89895e-005 -0.0014783 -0.214229 xyz
    dof rx ry rz
  end
:hierarchy
  begin
    root RightUpLegDummy SpineDummy LeftUpLegDummy
    RightUpLegDummy RightUpLeg
    RightUpLeg RightLeg
    RightLeg RightFoot
    RightFoot RightToes
    SpineDummy Spine
    Spine Spine1
    Spine1 HEadDummy LeftShoulder1Dummy RightShoulderDummy
    HEadDummy HEad
    LeftShoulder1Dummy LeftShoulder1
    LeftShoulder1 LeftArm
    LeftArm LeftForeArm
    LeftForeArm LeftHand
    RightShoulderDummy RightShoulder
    RightShoulder RightArm
    RightArm RightForeArm
    RightForeArm RightHand
    LeftUpLegDummy LeftUpLeg
    LeftUpLeg LeftLeg
    LeftLeg LeftFoot
    LeftFoot LeftToes
  end

:SAMPLES-PER-SECOND 30
:FULLY-SPECIFIED
:DEGREES
77
root  -15.4132 34.6169 -16.812 -170.245 0.205032 179.955
RightUpLeg  -9.15795 -14.0376 -0.772193
RightLeg  5.63177 -1.18929 -0.0393333
RightFoot  4.37485 0.00734251 0.0443282
RightToes  -23.991 -0.111275 -0.199671
Spine  -2.23605 -0.175309 0.254256
Spine1  -4.54714 -0.28247 1.07406
HEad  -55.3095 -2.60474 7.46766
LeftShoulder1  -1.94126e-019 -3.10601e-018 -2.51263e-017
LeftArm  -13.4222 26.4244 -81.1286
LeftForeArm  31.9822 -17.1036 -2.7274
LeftHand  -0.3779 -0.974696 7.01893
RightShoulder  -4.96962e-017 0 -2.36833e-017
RightArm  -37.1952 -23.6385 75.86
RightForeArm  57.1906 13.4296 1.32102
RightHand  -0.421102 -0.850008 -10.7304
LeftUpLeg  -7.10246 4.7148 2.60321
LeftLeg  5.44214 14.2691 0.433262
LeftFoot  4.49851 -0.0397735 1.25124
LeftToes  -19.4452 1.70063e-006 7.6642e-008
78
root  -15.4175 34.6213 -16.8527 -170.171 0.294113 179.957
RightUpLeg  -9.10152 -13.9612 -0.782943
RightLeg  5.48196 -1.17732 -0.0358576
RightFoot  4.38935 0.00727407 0.0453061
RightToes  -23.962 -0.111275 -0.199671
Spine  -2.23258 -0.171925 0.244053
Spine1  -4.53925 -0.280243 1.06228
HEad  -55.2624 -2.56872 7.43342
LeftShoulder1  -1.94126e-019 -3.10601e-018 -2.51263e-017
LeftArm  -13.4013 26.3978 -81.0374
LeftForeArm  31.8372 -17.2751 -2.7519
LeftHand  -0.377692 -0.885375 6.98744
RightShoulder  -4.96962e-017 0 -2.36833e-017
RightArm  -36.6261 -23.753 76.0851
RightForeArm  56.3925 13.848 1.27319
RightHand  -0.418811 -0.823885 -10.6132
LeftUpLeg  -7.0248 4.72002 2.58926
LeftLeg  5.29491 14.3622 0.399503
LeftFoot  4.4994 -0.0404266 1.26139
LeftToes  -19.3925 1.70063e-006 7.6642e-008
79
root  -15.4207 34.6265 -16.895 -170.092 0.372955 179.959
RightUpLeg  -9.05411 -13.9037 -0.785951
RightLeg  5.34146 -1.14911 -0.0321655
RightFoot  4.436 0.00723423 0.0458754
RightToes  -24.0908 -0.111275 -0.199671
Spine  -2.21784 -0.172389 0.233676
Spine1  -4.50851 -0.274755 1.05077
HEad  -55.539 -2.4895 7.46168
LeftShoulder1  -1.94126e-019 -3.10601e-018 -2.51263e-017
LeftArm  -13.4428 26.3319 -80.9467
LeftForeArm  31.7081 -17.3388 -2.76315
LeftHand  -0.376387 -0.931373 7.04285
RightShoulder  -4.96962e-017 0 -2.36833e-017
RightArm  -35.8816 -23.9213 76.2964
RightForeArm  55.4256 14.3676 1.21698
RightHand  -0.40664 -0.833725 -10.3242
LeftUpLeg  -6.9457 4.77366 2.57833
LeftLeg  5.13603 14.3948 0.36089
LeftFoot  4.54818 -0.0415485 1.27883
LeftToes  -19.5377 1.70063e-006 7.6642e-008
80
root  -15.4217 34.6339 -16.9331 -170 0.4207 179.959
RightUpLeg  -9.02509 -13.7801 -0.782767
RightLeg  5.21433 -1.22137 -0.0315507
RightFoot  4.44127 0.00727408 0.045306
RightToes  -24.0361 -0.111275 -0.199671
Spine  -2.19101 -0.18263 0.225197
Spine1  -4.45345 -0.292786 1.04498
HEad  -56.0636 -2.40736 7.44391
LeftShoulder1  -1.94126e-019 -3.10601e-018 -2.51263e-017
LeftArm  -13.593 26.3043 -80.8652
LeftForeArm  31.448 -17.5796 -2.79543
LeftHand  -0.374278 -0.876528 7.06066
RightShoulder  -4.96962e-017 0 -2.36833e-017
RightArm  -34.8432 -24.1142 76.4857
RightForeArm  54.3356 15.1043 1.14873
RightHand  -0.391972 -0.848989 -9.98123
LeftUpLeg  -6.86231 4.64458 2.56983
LeftLeg  4.92775 14.5736 0.31288
LeftFoot  4.57486 -0.0431377 1.30354
LeftToes  -19.4063 1.70063e-006 7.6642e-008
81
root  -15.4246 34.6529 -16.9664 -169.891 0.449112 179.959
RightUpLeg  -8.9711 -13.67 -0.778621
RightLeg  4.98498 -1.29957 -0.0284511
RightFoot  4.48567 0.00749612 0.0421331
RightToes  -24.0459 -0.111275 -0.199671
Spine  -2.1402 -0.22086 0.209828
Spine1  -4.34859 -0.363616 1.03717
HEad  -56.7827 -2.20225 7.36685
LeftShoulder1  -1.94126e-019 -3.10601e-018 -2.51263e-017
LeftArm  -14.1427 26.626 -80.7243
LeftForeArm  29.8541 -18.8825 -2.94837
LeftHand  -0.365739 -0.803051 6.97754
RightShoulder  -4.96962e-017 0 -2.36833e-017
RightArm  -32.9797 -24.564 76.643
RightForeArm  50.7756 16.9709 1.22408
RightHand  -0.305925 -1.22127 -8.42237
LeftUpLeg  -6.85539 4.61859 2.54723
LeftLeg  4.80593 14.6514 0.283707
LeftFoot  4.51732 -0.0429925 1.30128
LeftToes  -19.2057 1.70063e-006 7.6642e-008
82
root  -15.4384 34.713 -16.9793 -169.752 0.46814 179.958
RightUpLeg  -8.65521 -13.2154 -0.783768
RightLeg  4.1184 -1.75793 -0.0123317
RightFoot  4.84359 0.0100568 0.00554109
RightToes  -24.0108 -0.111275 -0.199671
Spine  -2.03633 -0.317983 0.156221
Spine1  -4.12503 -0.566025 1.00751
HEad  -57.7514 -1.86048 7.22858
LeftShoulder1  -1.94126e-019 -3.10601e-018 -2.51263e-017
LeftArm  -16.3708 27.7525 -80.436
LeftForeArm  24.9621 -23.3983 -3.67993
LeftHand  -0.387809 -0.794507 7.40215
RightShoulder  -4.96962e-017 0 -2.36833e-017
RightArm  -29.3405 -25.8521 76.2775
RightForeArm  46.0443 22.2157 2.37964
RightHand  -0.219035 -1.028 -5.7392
LeftUpLeg  -7.01477 4.15883 2.52107
LeftLeg  4.9137 15.1061 0.320415
LeftFoot  4.3463 -0.0436206 1.31105
LeftToes  -19.3552 1.70063e-006 7.6642e-008
83
root  -15.4516 34.7259 -16.9478 -169.395 0.588531 179.982
RightUpLeg  -9.49714 -12.2134 -0.733149
RightLeg  4.98724 -2.64925 -0.0590546
RightFoot  4.37475 0.013226 -0.0397463
RightToes  -23.7465 -0.111275 -0.199671
Spine  -1.88131 -0.377832 0.13969
Spine1  -3.818 -0.676619 0.981295
HEad  -59.3207 -1.23321 7.06167
LeftShoulder1  -1.94126e-019 -3.10601e-018 -2.51263e-017
LeftArm  -20.9288 30.0803 -79.584
LeftForeArm  19.3779 -33.3991 -6.25562
LeftHand  -0.447183 -1.25173 7.96899
RightShoulder  -4.96962e-017 0 -2.36833e-017
RightArm  -22.517 -29.0137 74.3275
RightForeArm  44.2211 37.7035 5.93178
RightHand  -0.207756 0.435199 -4.20884
LeftUpLeg  -8.55516 3.40592 2.52321
LeftLeg  7.38392 15.8659 1.01241
LeftFoot  3.23813 -0.0255531 1.06558
LeftToes  -19.609 1.70063e-006 7.6642e-008
84
root  -15.4478 34.7129 -16.8781 -169.08 0.721329 -179.751
RightUpLeg  -10.9228 -11.3044 -0.413666
RightLeg  6.99691 -3.37546 -0.193857
RightFoot  3.38474 0.0126746 -0.0318674
RightToes  -23.3616 -0.111275 -0.199671
Spine  -1.72826 -0.397705 0.234571
Spine1  -3.5034 -0.688186 1.15169
HEad  -60.8511 -0.621903 6.69113
LeftShoulder1  -1.94126e-019 -3.10601e-018 -2.51263e-017
LeftArm  -22.5105 32.1746 -77.5099
LeftForeArm  22.3655 -47.6899 -10.66
LeftHand  -0.543359 -1.67223 9.10749
RightShoulder  -4.96962e-017 0 -2.36833e-017
RightArm  -17.379 -31.571 70.1643
RightForeArm  46.4555 56.2016 12.7194
RightHand  -0.0842035 1.76182 -1.52627
LeftUpLeg  -11.068 3.33872 2.80506
LeftLeg  11.8449 15.8803 2.24612
LeftFoot  1.40692 -0.0047847 0.551265
LeftToes  -19.5331 1.70063e-006 7.6642e-008
85
root  -15.3991 34.6116 -16.7534 -168.876 1.05081 -178.84
RightUpLeg  -13.1997 -9.85266 0.515402
RightLeg  10.8002 -4.27257 -0.531519
RightFoot  1.6819 0.00705876 0.0483827
RightToes  -22.8936 -0.111275 -0.199671
Spine  -1.62748 -0.300418 0.532818
Spine1  -3.26454 -0.462764 1.72859
HEad  -61.5494 -0.122809 6.23805
LeftShoulder1  -1.94126e-019 -3.10601e-018 -2.51263e-017
LeftArm  -23.5994 32.3281 -73.6733
LeftForeArm  31.139 -62.9133 -19.2997
LeftHand  -0.608535 -1.14756 10.9519
RightShoulder  -4.96962e-017 0 -2.36833e-017
RightArm  -14.7097 -31.5359 64.0241
RightForeArm  59.4556 73.1059 30.5021
RightHand  -2.04824e-005 1.92733 -0.167186
LeftUpLeg  -14.9176 4.62887 3.76114
LeftLeg  19.0986 14.5369 3.95687
LeftFoot  -1.26756 -0.00388217 -0.18941
LeftToes  -19.5188 1.70063e-006 7.6642e-008
86
root  -15.3807 34.3297 -16.6625 -169.641 1.60529 -177.908
RightUpLeg  -15.9908 -9.84162 1.25641
RightLeg  17.6577 -3.37478 -0.839881
RightFoot  -1.25734 -0.00384679 0.251713
RightToes  -23.6565 -0.111275 -0.205552
Spine  -1.3406 -0.0108236 0.870146
Spine1  -2.60567 0.153631 2.3506
HEad  -61.1458 -0.057396 5.55545
LeftShoulder1  -1.94126e-019 -3.10601e-018 -2.51263e-017
LeftArm  -25.756 28.9321 -68.2027
LeftForeArm  50.5049 -75.7506 -42.9444
LeftHand  -0.558684 -1.01327 10.2685
RightShoulder  -4.96962e-017 0 -2.36833e-017
RightArm  -15.0636 -27.6955 55.8542
RightForeArm  127.089 80.7475 103.382
RightHand  -0.0332657 1.30064 -0.702433
LeftUpLeg  -18.1805 5.68335 4.79797
LeftLeg  27.2625 13.3698 5.75944
LeftFoot  -3.82593 -0.0332677 -0.834469
LeftToes  -19.4762 1.70063e-006 7.6642e-008
87
root  -15.4567 33.7876 -16.6191 -171.045 1.96869 -177.773
RightUpLeg  -19.8402 -12.537 1.01674
RightLeg  27.8794 -0.393934 -0.184833
RightFoot  -5.00527 -0.0150064 0.20832
RightToes  -25.0359 -0.111274 -0.216028
Spine  -0.979744 0.356602 1.04468
Spine1  -1.78928 0.985135 2.5657
HEad  -59.9638 -0.215415 4.76925
LeftShoulder1  -1.94126e-019 -3.10601e-018 -2.51263e-017
LeftArm  -28.9605 21.4942 -61.0153
LeftForeArm  111.045 -79.6572 -106.247
LeftHand  -0.512627 -0.438904 10.3137
RightShoulder  -4.96962e-017 0 -2.36833e-017
RightArm  -20.4287 -20.3814 45.868
RightForeArm  169.799 70.8303 152.16
RightHand  -0.112586 -0.827697 -2.77713
LeftUpLeg  -20.7066 6.14453 5.06857
LeftLeg  35.2266 11.9206 7.22118
LeftFoot  -6.53484 -0.0923113 -1.45531
LeftToes  -20.0027 1.70063e-006 7.6642e-008
88
root  -15.5159 33.0496 -16.6135 -172.342 1.9713 -178.248
RightUpLeg  -23.7152 -15.1172 0.274081
RightLeg  37.8939 1.22511 0.812175
RightFoot  -8.37422 -0.0417376 -0.0330496
RightToes  -24.3706 -0.107139 -0.211
Spine  -0.740617 0.592348 0.931385
Spine1  -1.29477 1.59285 2.15439
HEad  -58.9722 -0.15403 4.3681
LeftShoulder1  -1.94126e-019 -3.10601e-018 -2.51263e-017
LeftArm  -35.372 10.1762 -51.4863
LeftForeArm  144.083 -73.7722 -142.391
LeftHand  -0.416172 0.542108 9.98952
RightShoulder  -4.96962e-017 0 -2.36833e-017
RightArm  -31.8441 -9.47431 34.9758
RightForeArm  172.08 63.0943 160.787
RightHand  -0.103969 -3.79226 -6.38241
LeftUpLeg  -22.6043 7.21559 4.64699
LeftLeg  41.602 10.3551 7.96471
LeftFoot  -10.0353 -0.203515 -2.15611
LeftToes  -19.0776 1.70063e-006 7.6642e-008
89
root  -15.5688 32.4582 -16.629 -172.154 1.56062 -179.196
RightUpLeg  -26.4559 -19.1772 -0.452769
RightLeg  43.0347 3.29865 2.6714
RightFoot  -11.4457 -0.118436 -0.662049
RightToes  -24.1978 -0.106075 -0.209687
Spine  -0.961444 0.632838 0.467418
Spine1  -1.83335 1.73611 1.13151
HEad  -58.5322 -0.840622 4.66932
LeftShoulder1  -1.94126e-019 -3.10601e-018 -2.51263e-017
LeftArm  -45.5231 -2.72607 -39.8053
LeftForeArm  148.779 -69.7446 -150.696
LeftHand  -0.377424 1.36243 10.8144
RightShoulder  -4.96962e-017 0 -2.36833e-017
RightArm  -47.565 1.68917 24.104
RightForeArm  169.596 62.3428 161.142
RightHand  -0.0644845 -4.76753 -8.52562
LeftUpLeg  -24.5443 8.03259 3.59177
LeftLeg  44.9989 9.1442 7.9451
LeftFoot  -12.7177 -0.303192 -2.55861
LeftToes  -19.4502 1.70063e-006 7.6642e-008
90
root  -15.5447 32.676 -16.8437 -171.654 1.51807 -179.424
RightUpLeg  -25.4235 -19.7522 -0.683647
RightLeg  40.7467 4.05798 3.03438
RightFoot  -10.5321 -0.117467 -0.759235
RightToes  -26.0486 -0.117679 -0.223587
Spine  -1.59485 0.74534 0.101614
Spine1  -3.20609 1.93188 0.411845
HEad  -57.8075 -1.88557 4.54669
LeftShoulder1  -1.94126e-019 -3.10601e-018 -2.51263e-017
LeftArm  -55.4796 -13.4699 -28.7922
LeftForeArm  145.653 -69.2013 -151.098
LeftHand  -0.38572 2.01641 13.1334
RightShoulder  -4.96962e-017 0 -2.36833e-017
RightArm  -60.2191 9.55212 15.6904
RightForeArm  168.51 66.2551 157.645
RightHand  -0.144503 -3.93088 -10.3824
LeftUpLeg  -23.8978 8.99422 3.39246
LeftLeg  43.11 8.71148 7.09163
LeftFoot  -11.5387 -0.232093 -2.13529
LeftToes  -19.9985 1.70063e-006 7.6642e-008
91
root  -15.4515 33.7124 -17.2895 -172.323 2.50777 -179.422
RightUpLeg  -20.3292 -17.4891 -1.02446
RightLeg  32.7136 3.42149 1.88424
RightFoot  -4.46844 -0.0263687 -0.148072
RightToes  -27.8596 -0.129463 -0.236818
Spine  -2.01131 0.996003 -0.276579
Spine1  -4.12503 2.36928 -0.277651
HEad  -56.7204 -2.55817 3.94691
LeftShoulder1  -1.94126e-019 -3.10601e-018 -2.51263e-017
LeftArm  -63.33 -21.7077 -19.4902
LeftForeArm  140.511 -71.236 -147.136
LeftHand  -0.459887 2.13002 16.2431
RightShoulder  -4.96962e-017 0 -2.36833e-017
RightArm  -67.1151 15.8763 10.0577
RightForeArm  163.794 71.4335 150.487
RightHand  -0.0991166 -4.63707 -13.0238
LeftUpLeg  -18.8678 11.4559 3.79843
LeftLeg  35.4342 7.96943 4.89868
LeftFoot  -5.11246 -0.0380037 -0.689708
LeftToes  -24.1887 1.70063e-006 7.6642e-008
